<?xml version="1.0" encoding="UTF-8"?>
<svg id="Layer_2" data-name="Layer 2" xmlns="http://www.w3.org/2000/svg" viewBox="0 0 2413.55 2142.46">
  <defs>
    <style>
      .cls-1 {
        fill: #8f3896;
      }
    </style>
  </defs>
  <g id="Layer_1-2" data-name="Layer 1">
    <g>
      <path class="cls-1" d="m2269.49,277.89c-22.87-30.42-48.18-58.65-75.69-84.56-101.48-95.39-231.67-158.3-368.91-179.84-64.73-10.22-131.05-11.19-196.75-1.95-3.41.49-6.82.97-10.1,1.46v1856.89c74.95-52.2,143.69-103.91,206.85-154.65v-674.34h315.76s-.01.01-.01.02c-9.98,22.88-21.05,45.51-33.34,68.02-21.66,40.15-46.72,79.82-75.56,119.49v304.92c51.11-49.4,96.73-97.46,137.61-144.06,63.39-81.4,120.58-172.29,164.02-272.67,1.09-2.56,2.19-5.11,3.28-7.67,9.49-22.51,18.13-45.14,25.8-68.02v-.02h.04l.05-.23c1.07-3.08,2.13-6.04,3.08-9.13,21.26-64.98,35.47-131.17,42.54-197.12l.08-.38h-.04c3.53-32.85,5.36-65.57,5.36-98.05,0-95.03-15.21-187.99-45.75-273.89-23.85-67.16-56.95-129.1-98.31-184.22Zm-70.21,556.16h-374.39V224.35c109.86,25.19,211.96,88.21,279.25,177.77,28.71,38.33,51.95,81.89,68.74,129.22,32.49,91.25,41.01,196.74,26.4,302.71Z"/>
      <path class="cls-1" d="m1181.99,237.5c-46.1-53.54-102.57-99.04-167.78-135.18-61.57-34.19-131.04-60.11-206.85-77.02v553.87h206.85v-213.42c1.57,1.58,3.16,3.29,4.61,4.87h329.26v558h-540.72v983.38c64.47,43.44,133.34,87.36,206.85,131.53,38.33,23.12,77.76,46.24,118.63,69.35l21.06,11.92,31.01,17.64,32.13-18.98,19.34-11.32c38.45-22.63,75.69-45.14,111.69-67.65,73.62-45.87,142.49-91.38,206.85-136.52v-306.62h-206.85v208.79c-54.14,36.5-109.15,71.3-165.12,104.52-57.06-31.64-113.41-64.98-168.75-99.9v-679.31h540.72V19.59c-76.64,18.25-145.89,45.14-206.85,79.94-65.45,37.23-121.18,83.71-166.09,137.98Z"/>
      <path class="cls-1" d="m552.1,10.68c-126.18,23.12-244.81,83.35-335.7,174.12-9.49,9.49-18.62,19.22-27.51,29.32-1.94,2.19-3.89,4.38-5.72,6.69-55.61,64.73-97.09,134.45-126.42,206.85-15.21,37.23-27.02,75.2-35.9,113.52C5.89,605.67-.68,671.38.06,736.96c.24,30.54,2.19,61.08,5.48,91.38,2.67,24.82,6.32,49.52,10.94,73.98,2.55,13.87,5.48,27.74,8.64,41.49h526.98v481.47c-16.67-16.43-32.62-32.61-47.83-48.79-49.03-52.08-91.01-102.57-127.27-153.19h-244.56c13.63,25.07,28.23,49.28,43.56,72.64,29.56,45.02,62.54,89.55,99.53,134.21,25.56,30.78,53.06,61.69,82.74,92.84,36.87,37.23,76.78,75.44,119.86,114.01,23.73,21.41,48.3,42.83,73.98,64.49,62.79,53.05,131.53,107.07,206.85,161.95V736.96H206.9c-.49-34.31,1.7-68.62,6.81-102.45,10.84-71.79,34.57-141.87,73.86-206.85,16.3-26.65,35.16-52.44,56.82-77.26,53.78-61.32,127.52-105.25,207.7-127.15v204.41h206.85V6.42c-68.99-9.98-139.08-8.15-206.85,4.26Z"/>
    </g>
  </g>
</svg>